<svg width="31" height="30" viewBox="0 0 31 30" fill="none" xmlns="http://www.w3.org/2000/svg">
<path d="M12.9815 22.1412V22.1412C12.9815 19.8613 11.4488 17.1394 9.16884 17.1395L3.24502 17.14C1.45284 17.14 0 18.5786 0 20.3534V21.6679C0 22.4853 0.257424 23.2824 0.736428 23.9481C2.9617 27.0408 6.60223 28.5727 11.5386 28.5727V28.5727C13.2104 28.5727 13.9451 26.5749 13.4292 24.9847C13.1385 24.0885 12.9815 23.133 12.9815 22.1412ZM18.7534 7.14445C18.7534 3.19868 15.5232 0 11.5386 0C7.55392 0 4.32375 3.19868 4.32375 7.14445C4.32375 11.0902 7.55392 14.2889 11.5386 14.2889C15.5232 14.2889 18.7534 11.0902 18.7534 7.14445ZM30.297 22.1411C30.297 17.8009 26.7437 14.2822 22.3608 14.2822C17.9776 14.2822 14.4245 17.8009 14.4245 22.1411C14.4245 26.4815 17.9776 30 22.3608 30C26.7437 30 30.297 26.4815 30.297 22.1411ZM22.231 17.1516V17.1516C22.3173 17.1439 22.4041 17.1439 22.4903 17.1516V17.1516C22.7849 17.2044 23.0172 17.4345 23.0706 17.7261L23.0822 17.8544V17.8544C23.0814 19.8271 24.6804 21.4267 26.653 21.4267H26.6953L26.825 21.4382C27.1194 21.4911 27.3517 21.7212 27.4051 22.0128V22.0128C27.4128 22.0982 27.4128 22.1842 27.4051 22.2696V22.2696C27.3517 22.5612 27.1194 22.7911 26.825 22.8441L26.6953 22.8556H26.653C24.6804 22.8556 23.0814 24.4551 23.0822 26.4278V26.4278L23.0706 26.5562C23.0172 26.8479 22.7849 27.0778 22.4903 27.1308V27.1308C22.4041 27.1384 22.3173 27.1384 22.231 27.1308V27.1308C21.9365 27.0778 21.7044 26.8479 21.6508 26.5562L21.6393 26.4278V26.4278C21.6385 24.4547 20.0106 22.8556 18.0375 22.8556V22.8556L17.9078 22.8441C17.6133 22.7911 17.3811 22.5612 17.3276 22.2696V22.2696C17.3199 22.1842 17.3199 22.0982 17.3276 22.0128V22.0128C17.3811 21.7212 17.6133 21.4911 17.9078 21.4382L18.0375 21.4267V21.4267C20.0106 21.4267 21.6385 19.8276 21.6393 17.8544V17.8544L21.6508 17.7261C21.7044 17.4345 21.9365 17.2044 22.231 17.1516Z" fill="white"/>
</svg>
