<svg id="Component_3_1" data-name="Component 3 – 1" xmlns="http://www.w3.org/2000/svg" width="1843.151" height="621.503" viewBox="0 0 1843.151 621.503">
  <path id="Path_25" data-name="Path 25" d="M-121.67,712.884s194.215-102.82,281.041-102.82,130.239,9.14,251.337,61.692,285.611,0,285.611,0S904.244,498.105,1066.47,500.39,1379.5,610.065,1379.5,610.065l173.651,155.372L1379.5,1080.751H223.348Z" transform="translate(121.67 -460.808)" fill="rgba(242,154,154,0.1)"/>
  <path id="Path_26" data-name="Path 26" d="M-121.67,727.941s207.975-110.1,300.952-110.1,139.466,9.787,269.145,66.063,305.846,0,305.846,0,222.656-185.954,396.376-183.508,335.207,117.445,335.207,117.445l185.954,166.38-185.954,337.654H247.792Z" transform="translate(171.34 -500.368)" fill="rgba(242,154,154,0.14)" opacity="0.62"/>
</svg>
