<svg width="32" height="34" viewBox="0 0 32 34" fill="none" xmlns="http://www.w3.org/2000/svg">
<path d="M21.8182 5.66667H30.5455C30.9312 5.66667 31.3012 5.81592 31.574 6.0816C31.8468 6.34728 32 6.70761 32 7.08333C32 7.45906 31.8468 7.81939 31.574 8.08507C31.3012 8.35074 30.9312 8.5 30.5455 8.5H28.9367L26.7491 27.6987C26.5515 29.4314 25.7047 31.0322 24.3709 32.1948C23.0371 33.3575 21.31 34.0002 19.52 34H12.48C10.69 34.0002 8.96286 33.3575 7.62906 32.1948C6.29526 31.0322 5.44852 29.4314 5.25091 27.6987L3.06036 8.5H1.45455C1.06878 8.5 0.698807 8.35074 0.426027 8.08507C0.153247 7.81939 0 7.45906 0 7.08333C0 6.70761 0.153247 6.34728 0.426027 6.0816C0.698807 5.81592 1.06878 5.66667 1.45455 5.66667H10.1818C10.1818 4.16377 10.7948 2.72243 11.8859 1.65973C12.977 0.597022 14.4569 0 16 0C17.5431 0 19.023 0.597022 20.1141 1.65973C21.2052 2.72243 21.8182 4.16377 21.8182 5.66667ZM16 2.83333C15.2285 2.83333 14.4885 3.13184 13.943 3.6632C13.3974 4.19455 13.0909 4.91522 13.0909 5.66667H18.9091C18.9091 4.91522 18.6026 4.19455 18.057 3.6632C17.5115 3.13184 16.7715 2.83333 16 2.83333ZM5.98982 8.5L8.14254 27.387C8.26138 28.4264 8.76954 29.3867 9.56979 30.084C10.37 30.7813 11.4062 31.1668 12.48 31.1667H19.52C20.5933 31.1661 21.6287 30.7803 22.4284 30.0831C23.228 29.3858 23.7358 28.4259 23.8545 27.387L26.0131 8.5H5.99273H5.98982Z" fill="#263238"/>
</svg>
