<svg width="30" height="30" viewBox="0 0 30 30" fill="none" xmlns="http://www.w3.org/2000/svg">
<path d="M21.54 18C21.66 17.01 21.75 16.02 21.75 15C21.75 13.98 21.66 12.99 21.54 12H26.61C26.85 12.96 27 13.965 27 15C27 16.035 26.85 17.04 26.61 18M18.885 26.34C19.785 24.675 20.475 22.875 20.955 21H25.38C23.94 23.475 21.645 25.395 18.885 26.34ZM18.51 18H11.49C11.34 17.01 11.25 16.02 11.25 15C11.25 13.98 11.34 12.975 11.49 12H18.51C18.645 12.975 18.75 13.98 18.75 15C18.75 16.02 18.645 17.01 18.51 18ZM15 26.94C13.755 25.14 12.75 23.145 12.135 21H17.865C17.25 23.145 16.245 25.14 15 26.94ZM9 9H4.62C6.045 6.51 8.355 4.59 11.1 3.66C10.2 5.325 9.525 7.125 9 9ZM4.62 21H9C9.525 22.875 10.2 24.675 11.1 26.34C8.355 25.395 6.045 23.475 4.62 21ZM3.39 18C3.15 17.04 3 16.035 3 15C3 13.965 3.15 12.96 3.39 12H8.46C8.34 12.99 8.25 13.98 8.25 15C8.25 16.02 8.34 17.01 8.46 18M15 3.045C16.245 4.845 17.25 6.855 17.865 9H12.135C12.75 6.855 13.755 4.845 15 3.045ZM25.38 9H20.955C20.475 7.125 19.785 5.325 18.885 3.66C21.645 4.605 23.94 6.51 25.38 9ZM15 0C6.705 0 0 6.75 0 15C0 18.9782 1.58035 22.7936 4.3934 25.6066C5.78628 26.9995 7.43986 28.1044 9.25975 28.8582C11.0796 29.612 13.0302 30 15 30C18.9782 30 22.7936 28.4196 25.6066 25.6066C28.4196 22.7936 30 18.9782 30 15C30 13.0302 29.612 11.0796 28.8582 9.25975C28.1044 7.43986 26.9995 5.78628 25.6066 4.3934C24.2137 3.00052 22.5601 1.89563 20.7403 1.14181C18.9204 0.387987 16.9698 0 15 0Z" fill="#9E0000"/>
</svg>
