<svg width="239" height="264" viewBox="0 0 239 264" fill="none" xmlns="http://www.w3.org/2000/svg">
<path fill-rule="evenodd" clip-rule="evenodd" d="M159.325 3.19312C197.627 4.81554 239.799 2.96601 268.82 22.138C297.147 40.8522 304.691 72.1053 306.879 100.672C308.7 124.448 289.551 144.607 279.934 167.26C270.312 189.929 274.388 217.908 250.58 233.3C226.428 248.914 190.626 241.733 159.325 245.235C120.823 249.544 73.737 277.274 46.3432 256.153C17.162 233.655 62.4267 194.529 53.4467 163.603C45.9631 137.83 2.60721 124.187 0.375041 97.8426C-2.24672 66.8997 8.63613 31.531 40.6417 12.4727C72.798 -6.67528 118.622 1.46901 159.325 3.19312Z" fill="#940202" fill-opacity="0.1"/>
</svg>
