<svg width="286" height="275" viewBox="0 0 286 275" fill="none" xmlns="http://www.w3.org/2000/svg">
<path fill-rule="evenodd" clip-rule="evenodd" d="M183.569 26.4904C219.401 43.3988 258.424 60.6549 276.173 96.4C293.88 132.061 280.664 173.926 276.654 213.959C272.344 256.999 279.716 305.014 251.948 338.269C223.576 372.247 175.983 391.239 132.738 386.312C92.5072 381.729 73.0745 335.874 39.0912 314.019C10.4026 295.57 -26.3579 293.631 -49.9055 268.857C-79.5772 237.641 -110.4 201.023 -109.828 157.347C-109.231 111.784 -81.5445 68.8326 -46.8973 39.1761C-13.9031 10.9345 30.4098 3.00208 73.2453 0.644251C112.054 -1.49194 148.591 9.98547 183.569 26.4904Z" fill="#940202" fill-opacity="0.1"/>
</svg>
