<svg width="246" height="318" viewBox="0 0 246 318" fill="none" xmlns="http://www.w3.org/2000/svg">
<path fill-rule="evenodd" clip-rule="evenodd" d="M93.8515 0.478144C123.519 -0.416459 155.438 -2.33485 179.337 19.5476C203.18 41.3787 208.413 80.9444 219.193 115.243C230.781 152.118 251.862 188.262 244.461 226.769C236.9 266.114 211.435 301.113 180.836 314.819C152.37 327.57 123.944 298.13 93.8515 294.233C68.4474 290.942 43.1931 304.427 19.1028 293.871C-11.2527 280.57 -44.195 263.334 -58.4997 227.473C-73.4226 190.062 -69.3371 143.679 -56.1224 105.287C-43.5382 68.7273 -16.5492 44.0942 11.3257 24.6139C36.5803 6.96471 64.8924 1.3514 93.8515 0.478144Z" fill="#940202" fill-opacity="0.1"/>
</svg>
