<svg width="25" height="25" viewBox="0 0 25 25" fill="none" xmlns="http://www.w3.org/2000/svg">
<path d="M14.4228 4C14.4228 2.75736 13.4053 1.75 12.1503 1.75C10.8952 1.75 9.87777 2.75736 9.87777 4H14.4228ZM8.36277 4C8.36277 1.92893 10.0585 0.25 12.1503 0.25C14.242 0.25 15.9378 1.92893 15.9378 4H23.5128C23.9311 4 24.2703 4.33579 24.2703 4.75C24.2703 5.16421 23.9311 5.5 23.5128 5.5H21.9154L20.6917 16H19.1667L20.3904 5.5H3.9102L5.69836 20.8438C5.87476 22.3576 7.16933 23.5 8.70839 23.5H12.2797C12.1959 23.7346 12.1503 23.987 12.1503 24.25C12.1503 24.513 12.1959 24.7654 12.2797 25H8.70839C6.3998 25 4.45795 23.2864 4.19334 21.0158L2.38514 5.5H0.787773C0.369421 5.5 0.0302734 5.16421 0.0302734 4.75C0.0302734 4.33579 0.369421 4 0.787773 4H8.36277ZM14.4228 17.5C14.0045 17.5 13.6653 17.8358 13.6653 18.25C13.6653 18.6642 14.0045 19 14.4228 19H23.5128C23.9311 19 24.2703 18.6642 24.2703 18.25C24.2703 17.8358 23.9311 17.5 23.5128 17.5H14.4228ZM14.4228 20.5C14.0045 20.5 13.6653 20.8358 13.6653 21.25C13.6653 21.6642 14.0045 22 14.4228 22H23.5128C23.9311 22 24.2703 21.6642 24.2703 21.25C24.2703 20.8358 23.9311 20.5 23.5128 20.5H14.4228ZM14.4228 23.5C14.0045 23.5 13.6653 23.8358 13.6653 24.25C13.6653 24.6642 14.0045 25 14.4228 25H23.5128C23.9311 25 24.2703 24.6642 24.2703 24.25C24.2703 23.8358 23.9311 23.5 23.5128 23.5H14.4228Z" fill="#940202" fill-opacity="0.65"/>
</svg>
