<svg width="32" height="30" viewBox="0 0 32 30" fill="none" xmlns="http://www.w3.org/2000/svg">
<path d="M24.208 14.2105L26.224 12.2211C26.928 11.5263 27.824 11.1474 28.8 11.0526V9.47368L19.2 0H3.2C1.424 0 0 1.40526 0 3.15789V25.2632C0 27 1.424 28.4211 3.2 28.4211H12.8V25.4684L13.008 25.2632H3.2V3.15789H14.4V14.2105H24.208ZM17.6 2.36842L26.4 11.0526H17.6V2.36842ZM25.808 17.1L29.072 20.3211L19.264 30H16V26.7789L25.808 17.1ZM31.76 17.6684L30.192 19.2158L26.928 15.9947L28.496 14.4474C28.8 14.1316 29.328 14.1316 29.648 14.4474L31.76 16.5316C32.08 16.8474 32.08 17.3684 31.76 17.6684Z" fill="#263238"/>
</svg>
