<svg width="40" height="39" viewBox="0 0 40 39" fill="none" xmlns="http://www.w3.org/2000/svg">
<path d="M20.0022 1.67593e-06C8.95096 -0.00447388 0 8.95559 0 20.0147C0 28.7599 5.59937 36.1938 13.3974 38.9239C14.4475 39.188 14.2867 38.4406 14.2867 37.9303V34.4618C8.22255 35.1734 7.97676 31.1543 7.5701 30.483C6.74785 29.0777 4.80393 28.7196 5.38487 28.0483C6.76572 27.3367 8.17339 28.2273 9.80449 30.6397C10.9842 32.3896 13.2857 32.0942 14.452 31.8033C14.7067 30.7515 15.2519 29.8117 16.0027 29.0822C9.71958 27.9543 7.10088 24.1143 7.10088 19.5492C7.10088 17.3338 7.82929 15.2975 9.2593 13.6549C8.34767 10.9472 9.34421 8.62887 9.47827 8.28426C12.0746 8.05153 14.7738 10.1461 14.9838 10.3117C16.4585 9.91336 18.1432 9.70301 20.029 9.70301C21.9238 9.70301 23.613 9.92231 25.1011 10.3251C25.6061 9.94021 28.1086 8.14104 30.5217 8.36034C30.6513 8.70496 31.6255 10.9696 30.7675 13.6415C32.2154 15.2885 32.9527 17.3428 32.9527 19.5627C32.9527 24.1367 30.3162 27.9812 24.0152 29.0911C24.5549 29.6227 24.9834 30.2566 25.2757 30.9559C25.5681 31.6552 25.7184 32.4058 25.7178 33.1639V38.1989C25.7535 38.6017 25.7178 39 26.3881 39C34.3023 36.3281 40 28.8405 40 20.0192C40 8.95559 31.0446 1.67593e-06 20.0022 1.67593e-06Z" fill="#9E0000"/>
</svg>
