<svg width="60" height="60" viewBox="0 0 60 60" fill="none" xmlns="http://www.w3.org/2000/svg">
<path d="M54.5137 25.1038H52.5V25H30V35H44.1288C42.0675 40.8213 36.5287 45 30 45C21.7162 45 15 38.2837 15 30C15 21.7162 21.7162 15 30 15C33.8237 15 37.3025 16.4425 39.9513 18.7987L47.0225 11.7275C42.5575 7.56625 36.585 5 30 5C16.1938 5 5 16.1938 5 30C5 43.8063 16.1938 55 30 55C43.8063 55 55 43.8063 55 30C55 28.3237 54.8275 26.6875 54.5137 25.1038Z" fill="#FFC107"/>
<path d="M7.88232 18.3638L16.0961 24.3875C18.3186 18.885 23.7011 15 29.9998 15C33.8236 15 37.3023 16.4425 39.9511 18.7987L47.0223 11.7275C42.5573 7.56625 36.5848 5 29.9998 5C20.3973 5 12.0698 10.4212 7.88232 18.3638Z" fill="#FF3D00"/>
<path d="M29.9999 55C36.4574 55 42.3249 52.5288 46.7612 48.51L39.0237 41.9625C36.4293 43.9355 33.2592 45.0026 29.9999 45C23.4974 45 17.9762 40.8538 15.8962 35.0675L7.74365 41.3488C11.8812 49.445 20.2837 55 29.9999 55Z" fill="#4CAF50"/>
<path d="M54.5138 25.1038H52.5V25H30V35H44.1288C43.1428 37.7705 41.3667 40.1915 39.02 41.9637L39.0238 41.9613L46.7612 48.5087C46.2138 49.0062 55 42.5 55 30C55 28.3238 54.8275 26.6875 54.5138 25.1038Z" fill="#1976D2"/>
</svg>
