<svg width="33" height="30" viewBox="0 0 33 30" fill="none" xmlns="http://www.w3.org/2000/svg">
<path d="M31.132 11.472L21.1336 2.34066C19.8961 1.21398 18.22 0.581299 16.4725 0.581299C14.725 0.581299 13.0489 1.21398 11.8114 2.34066L1.81299 11.472C1.44446 11.8063 1.15228 12.2042 0.953385 12.6424C0.754488 13.0807 0.652833 13.5506 0.654313 14.025V25.8418C0.654313 26.7995 1.07095 27.718 1.81257 28.3952C2.55419 29.0724 3.56005 29.4529 4.60886 29.4529H28.3361C29.3849 29.4529 30.3908 29.0724 31.1324 28.3952C31.874 27.718 32.2907 26.7995 32.2907 25.8418V14.025C32.2922 13.5506 32.1905 13.0807 31.9916 12.6424C31.7927 12.2042 31.5005 11.8063 31.132 11.472ZM20.427 27.0455H12.518V22.3101C12.518 21.3524 12.9346 20.4339 13.6762 19.7567C14.4178 19.0795 15.4237 18.699 16.4725 18.699C17.5213 18.699 18.5272 19.0795 19.2688 19.7567C20.0104 20.4339 20.427 21.3524 20.427 22.3101V27.0455ZM29.6543 25.8418C29.6543 26.161 29.5154 26.4672 29.2682 26.6929C29.021 26.9187 28.6857 27.0455 28.3361 27.0455H23.0634V22.3101C23.0634 20.7139 22.369 19.1831 21.133 18.0544C19.8969 16.9257 18.2205 16.2916 16.4725 16.2916C14.7245 16.2916 13.0481 16.9257 11.812 18.0544C10.576 19.1831 9.88159 20.7139 9.88159 22.3101V27.0455H4.60886C4.25925 27.0455 3.92397 26.9187 3.67676 26.6929C3.42956 26.4672 3.29068 26.161 3.29068 25.8418V14.025C3.2919 13.706 3.43065 13.4003 3.6769 13.174L13.6753 4.04631C14.4184 3.37095 15.4241 2.9918 16.4725 2.9918C17.5209 2.9918 18.5266 3.37095 19.2697 4.04631L29.2681 13.1776C29.5134 13.403 29.6521 13.7073 29.6543 14.025V25.8418Z" fill="white"/>
</svg>
