<svg width="24" height="24" viewBox="0 0 24 24" fill="none" xmlns="http://www.w3.org/2000/svg">
<path d="M20.4001 5.1024C20.4001 3.9024 19.0609 3.1884 18.0637 3.8568L7.8649 10.7052C7.66124 10.8419 7.49422 11.0265 7.37845 11.2427C7.26269 11.459 7.20173 11.7003 7.2009 11.9456C7.20007 12.1908 7.2594 12.4326 7.3737 12.6496C7.488 12.8666 7.65377 13.0523 7.8565 13.1904L18.0565 20.142C18.2819 20.2953 18.5449 20.3843 18.8171 20.3994C19.0893 20.4145 19.3604 20.3551 19.6014 20.2276C19.8424 20.1002 20.0441 19.9095 20.1848 19.676C20.3255 19.4425 20.4 19.175 20.4001 18.9024V5.1024ZM3.6001 4.2C3.6001 4.04087 3.66331 3.88826 3.77583 3.77574C3.88836 3.66321 4.04097 3.6 4.2001 3.6C4.35923 3.6 4.51184 3.66321 4.62436 3.77574C4.73688 3.88826 4.8001 4.04087 4.8001 4.2V19.8C4.8001 19.9591 4.73688 20.1117 4.62436 20.2243C4.51184 20.3368 4.35923 20.4 4.2001 20.4C4.04097 20.4 3.88836 20.3368 3.77583 20.2243C3.66331 20.1117 3.6001 19.9591 3.6001 19.8V4.2Z" fill="#9E0000" fill-opacity="0.7"/>
</svg>
