<svg width="45" height="36" viewBox="0 0 45 36" fill="none" xmlns="http://www.w3.org/2000/svg">
<path d="M44.3077 9.34062V29.0769C44.3077 30.913 43.5783 32.674 42.28 33.9723C40.9816 35.2706 39.2207 36 37.3846 36H6.92308C5.08696 36 3.32605 35.2706 2.02772 33.9723C0.729393 32.674 0 30.913 0 29.0769V9.34062L21.4505 21.9628C21.6636 22.0884 21.9064 22.1547 22.1538 22.1547C22.4012 22.1547 22.6441 22.0884 22.8572 21.9628L44.3077 9.34062ZM37.3846 8.57151e-08C39.0881 -0.000267829 40.7319 0.627526 42.0015 1.76328C43.2711 2.89903 44.0774 4.46301 44.2662 6.156L22.1538 19.1631L0.0415388 6.156C0.230285 4.46301 1.03659 2.89903 2.3062 1.76328C3.57581 0.627526 5.21959 -0.000267829 6.92308 8.57151e-08H37.3846Z" fill="#9E0000"/>
</svg>
