<svg width="35" height="30" viewBox="0 0 35 30" fill="none" xmlns="http://www.w3.org/2000/svg">
<path d="M35 7.78385V24.2308C35 25.7609 34.4238 27.2283 33.3982 28.3102C32.3727 29.3922 30.9817 30 29.5312 30H5.46875C4.01835 30 2.62735 29.3922 1.60176 28.3102C0.57617 27.2283 0 25.7609 0 24.2308V7.78385L16.9444 18.3023C17.1127 18.407 17.3046 18.4623 17.5 18.4623C17.6954 18.4623 17.8873 18.407 18.0556 18.3023L35 7.78385ZM29.5312 7.14293e-08C30.8769 -0.000223191 32.1754 0.522938 33.1783 1.4694C34.1812 2.41586 34.8181 3.71917 34.9672 5.13L17.5 15.9692L0.0328127 5.13C0.181909 3.71917 0.818834 2.41586 1.82174 1.4694C2.82464 0.522938 4.12312 -0.000223191 5.46875 7.14293e-08H29.5312Z" fill="#9E0000"/>
</svg>
