<svg width="868" height="751" viewBox="0 0 468 451" fill="none" xmlns="http://www.w3.org/2000/svg">
<path fill-rule="evenodd" clip-rule="evenodd" d="M468 437L452.236 430C436.472 422 405.928 408 374.4 391C342.872 375 312.328 356 280.8 363C249.272 370 218.728 403 187.2 408C155.672 413 125.128 389 93.6 391C62.0716 394 31.5284 422 15.7642 437L-5.1856e-06 451V308H15.7642C31.5284 308 62.0716 308 93.6 308C125.128 308 155.672 308 187.2 308C218.728 308 249.272 308 280.8 308C312.328 308 342.872 308 374.4 308C405.928 308 436.472 308 452.236 308H468V437Z" fill="url(#paint0_linear_27_95)"/>
<rect y="343" width="343" height="468" transform="rotate(-90 0 343)" fill="url(#paint1_linear_27_95)"/>
<defs>
<linearGradient id="paint0_linear_27_95" x1="468" y1="379.5" x2="0" y2="379.5" gradientUnits="userSpaceOnUse">
<stop stop-color="#C31432"/>
<stop offset="1" stop-color="#240B36"/>
</linearGradient>
<linearGradient id="paint1_linear_27_95" x1="171.5" y1="343" x2="171.5" y2="811" gradientUnits="userSpaceOnUse">
<stop stop-color="#270B36"/>
<stop offset="1" stop-color="#C01432"/>
</linearGradient>
</defs>
</svg>
