<svg width="39" height="39" viewBox="0 0 39 39" fill="none" xmlns="http://www.w3.org/2000/svg">
<path d="M19.5 0C8.73044 0 0 8.73044 0 19.5C0 30.2696 8.73044 39 19.5 39C30.2696 39 39 30.2696 39 19.5C39 8.73044 30.2696 0 19.5 0ZM12.4922 7.74572C12.894 7.72203 13.2571 7.96217 13.5324 8.38841L16.1984 13.4443C16.4791 14.0434 16.3196 14.6849 15.9009 15.113L14.6798 16.3341C14.6044 16.4374 14.5548 16.5537 14.5536 16.6816C15.0219 18.4943 16.4424 20.1663 17.6957 21.3162C18.949 22.466 20.296 24.0228 22.0446 24.3916C22.2607 24.4519 22.5255 24.4735 22.6802 24.3298L24.0989 22.8849C24.5886 22.5137 25.297 22.3338 25.8199 22.6374H25.8437L30.6544 25.4771C31.3605 25.9198 31.4337 26.7753 30.9281 27.2957L27.6147 30.583C27.1254 31.0848 26.4753 31.2535 25.8437 31.2543C23.0504 31.1706 20.4111 29.7996 18.2432 28.3907C14.6848 25.802 11.4207 22.5912 9.37154 18.7121C8.58562 17.0855 7.6624 15.01 7.7505 13.1944C7.75837 12.5114 7.94316 11.8423 8.42416 11.402L11.7376 8.08857C11.9957 7.86893 12.2511 7.75996 12.4922 7.74572Z" fill="#9E0000"/>
</svg>
