<svg width="18" height="18" viewBox="0 0 18 18" fill="none" xmlns="http://www.w3.org/2000/svg">
<path d="M0 1.75302C0 0.345019 1.578 -0.486981 2.74 0.309019L13.238 7.50302C13.4716 7.66317 13.6629 7.87763 13.7954 8.128C13.9279 8.37836 13.9976 8.65714 13.9986 8.9404C13.9996 9.22365 13.9318 9.50291 13.801 9.75419C13.6703 10.0055 13.4805 10.2213 13.248 10.383L2.749 17.685C1.59 18.492 0 17.66 0 16.248V1.75302ZM18 0.750019C18 0.551106 17.921 0.360341 17.7803 0.219689C17.6397 0.0790363 17.4489 1.87487e-05 17.25 1.87487e-05C17.0511 1.87487e-05 16.8603 0.0790363 16.7197 0.219689C16.579 0.360341 16.5 0.551106 16.5 0.750019V17.25C16.5 17.4489 16.579 17.6397 16.7197 17.7803C16.8603 17.921 17.0511 18 17.25 18C17.4489 18 17.6397 17.921 17.7803 17.7803C17.921 17.6397 18 17.4489 18 17.25V0.750019Z" fill="#9E0000" fill-opacity="0.7"/>
</svg>
