<svg width="26" height="25" viewBox="0 0 26 25" fill="none" xmlns="http://www.w3.org/2000/svg">
<path d="M15.1037 0.5H23.5V8.89634L9.10345 23.2929L0.707107 14.8966L15.1037 0.5ZM17.0434 5.79026L17.5053 5.59892L17.0434 5.79027C17.2065 6.18407 17.4827 6.52066 17.8371 6.75748C18.1915 6.99429 18.6082 7.12069 19.0345 7.12069C19.6061 7.12069 20.1542 6.89363 20.5584 6.48945C20.9626 6.08528 21.1897 5.5371 21.1897 4.96552C21.1897 4.53926 21.0633 4.12258 20.8264 3.76817L20.4107 4.04595L20.8264 3.76817C20.5896 3.41375 20.253 3.13752 19.8592 2.9744C19.4654 2.81128 19.0321 2.7686 18.614 2.85176C18.196 2.93491 17.812 3.14017 17.5105 3.44158C17.2091 3.74299 17.0039 4.127 16.9207 4.54506C16.8376 4.96313 16.8802 5.39646 17.0434 5.79026Z" stroke="#263238"/>
<path d="M24.7351 10.0119L24.8734 9.86702V9.66667V2.5H25.5V10.3192L12.2731 24.2761L11.6926 23.6729L24.7351 10.0119Z" stroke="#263238"/>
</svg>
