<svg width="26" height="24" viewBox="0 0 26 24" fill="none" xmlns="http://www.w3.org/2000/svg">
<path d="M16.5938 1H24.5121V8.68216L10.2522 22.6025L2.35832 14.8966L16.5938 1ZM18.9372 7.17932L19.4835 6.34174L18.9372 7.17932C19.3798 7.46801 19.8977 7.62069 20.4255 7.62069C21.1327 7.62069 21.8157 7.34666 22.323 6.85148C22.831 6.35549 23.121 5.6776 23.121 4.96552C23.121 4.43493 22.9597 3.91832 22.6605 3.48112C22.3615 3.04423 21.939 2.70729 21.4492 2.50926C20.9597 2.3113 20.4223 2.25986 19.9041 2.36048C19.3858 2.46113 18.9065 2.71011 18.528 3.07956C18.1493 3.44926 17.8886 3.92325 17.7827 4.44294L18.7625 4.64261L17.7827 4.44295C17.6767 4.96281 17.7313 5.50139 17.9385 5.98953C18.1455 6.47739 18.4943 6.89046 18.9372 7.17932Z" stroke="white" stroke-width="2"/>
</svg>
